<svg width="1021" height="1021" viewBox="0 0 1021 1021" fill="none" xmlns="http://www.w3.org/2000/svg">
<ellipse cx="521" cy="578.001" rx="409" ry="400" fill="#BDD2EC"/>
<path d="M884.5 546.001C884.5 759.751 707.245 933.501 488 933.501C268.755 933.501 91.5 759.751 91.5 546.001C91.5 332.252 268.755 158.501 488 158.501C707.245 158.501 884.5 332.252 884.5 546.001Z" stroke="#133E87" stroke-width="25"/>
<path d="M491 438.001C491 448.614 489 458.084 489 468.001" stroke="#133E87" stroke-width="25" stroke-linecap="round"/>
<path d="M416.5 341.001C416.5 376.323 387.031 405.501 350 405.501C312.969 405.501 283.5 376.323 283.5 341.001C283.5 305.679 312.969 276.501 350 276.501C387.031 276.501 416.5 305.679 416.5 341.001Z" stroke="#133E87" stroke-width="25"/>
<path d="M414 334.001C414 355.54 396.539 373.001 375 373.001C353.461 373.001 336 355.54 336 334.001C336 312.462 353.461 295.001 375 295.001C396.539 295.001 414 312.462 414 334.001Z" fill="#133E87"/>
<path d="M694.5 334.001C694.5 369.323 665.031 398.501 628 398.501C590.969 398.501 561.5 369.323 561.5 334.001C561.5 298.679 590.969 269.501 628 269.501C665.031 269.501 694.5 298.679 694.5 334.001Z" stroke="#133E87" stroke-width="25"/>
<path d="M694 327.001C694 348.54 676.091 366.001 654 366.001C631.909 366.001 614 348.54 614 327.001C614 305.462 631.909 288.001 654 288.001C676.091 288.001 694 305.462 694 327.001Z" fill="#133E87"/>
<path d="M455.656 658.999C445.254 667.996 432.707 644.185 430.681 636.694C426.11 619.794 431.356 600.638 440.454 586.095C455.745 561.652 477.981 547.001 506.693 547.001C521.996 547.001 538.883 555.257 543.613 570.598C553.706 603.332 547.866 643.866 510.433 657.356C493.571 663.433 478.154 658.999 462.171 658.999" stroke="#133E87" stroke-width="25" stroke-linecap="round"/>
<path d="M864.898 72.8839C869.98 31.0838 953.657 46.5868 938.783 88.0895C931.757 107.695 925.185 120.131 908.481 132.99C892.656 145.173 888.52 168.38 886.301 186.634" stroke="#133E87" stroke-width="30" stroke-linecap="round"/>
<path d="M880.266 236.266C866.15 234.626 869.88 247.604 877.529 246.398C888.518 244.664 884.384 234.095 875.239 233.033" stroke="#133E87" stroke-width="30" stroke-linecap="round"/>
</svg>
